<?xml version="1.0" encoding="UTF-8" standalone="no"?>
<svg
   viewBox="0 0 196.29333 59.759998"
   height="59.759998"
   width="196.29333"
   xml:space="preserve"
   id="svg2"
   version="1.1"
   sodipodi:docname="Чайка-лого_web.svg"
   inkscape:version="1.3.2 (091e20e, 2023-11-25, custom)"
   xmlns:inkscape="http://www.inkscape.org/namespaces/inkscape"
   xmlns:sodipodi="http://sodipodi.sourceforge.net/DTD/sodipodi-0.dtd"
   xmlns:xlink="http://www.w3.org/1999/xlink"
   xmlns="http://www.w3.org/2000/svg"
   xmlns:svg="http://www.w3.org/2000/svg"
   xmlns:rdf="http://www.w3.org/1999/02/22-rdf-syntax-ns#"
   xmlns:cc="http://creativecommons.org/ns#"
   xmlns:dc="http://purl.org/dc/elements/1.1/"><sodipodi:namedview
     id="namedview1"
     pagecolor="#ffffff"
     bordercolor="#000000"
     borderopacity="0.25"
     inkscape:showpageshadow="2"
     inkscape:pageopacity="0.0"
     inkscape:pagecheckerboard="0"
     inkscape:deskcolor="#d1d1d1"
     inkscape:zoom="6.3272653"
     inkscape:cx="98.146667"
     inkscape:cy="29.949748"
     inkscape:window-width="1920"
     inkscape:window-height="1057"
     inkscape:window-x="-8"
     inkscape:window-y="-8"
     inkscape:window-maximized="1"
     inkscape:current-layer="g10" /><metadata
     id="metadata8"><rdf:RDF><cc:Work
         rdf:about=""><dc:format>image/svg+xml</dc:format><dc:type
           rdf:resource="http://purl.org/dc/dcmitype/StillImage" /></cc:Work></rdf:RDF></metadata><defs
     id="defs6"><linearGradient
       id="linearGradient17"
       inkscape:collect="always"><stop
         style="stop-color:#666774;stop-opacity:1;"
         offset="0.31589958"
         id="stop18" /><stop
         style="stop-color:#000000;stop-opacity:1;"
         offset="0.56380755"
         id="stop20" /><stop
         style="stop-color:#8184a5;stop-opacity:0.94785279;"
         offset="1"
         id="stop19" /></linearGradient><clipPath
       clipPathUnits="userSpaceOnUse"
       id="clipPath24"><rect
         style="fill:none;stroke:#000000;stroke-width:0.999999;stroke-linecap:butt;stroke-linejoin:bevel;paint-order:stroke markers fill;stop-color:#000000"
         id="rect24"
         width="44.999748"
         height="77.937294"
         x="251.53429"
         y="222.73541" /></clipPath><linearGradient
       inkscape:collect="always"
       xlink:href="#linearGradient17"
       id="linearGradient19"
       x1="579.63434"
       y1="564.36395"
       x2="795.36737"
       y2="-53.201447"
       gradientUnits="userSpaceOnUse" /></defs><g
     transform="matrix(1.3333333,0,0,-1.3333333,0,59.76)"
     id="g10"
     style="fill:#ffffff;fill-opacity:1"
     inkscape:label="g10"><g
       transform="scale(0.1)"
       id="g12"
       style="fill:#ffffff;fill-opacity:1"><path
         id="path14"
         style="fill:url(#linearGradient19);fill-opacity:1;fill-rule:evenodd;stroke:none"
         d="m 73.2969,216.48 -4.4414,10.622 c -10.2696,24.464 -13.3946,36.828 -38.5899,45.136 -14.957,4.922 -17.6562,5.145 -29.332006,6.629 -0.550781,0.063 -0.9570315,0.555 -0.92968775,1.113 0.02343755,0.551 0.47656275,0.997 1.03906375,1.012 55.62503,1.594 33.73433,0.969 68.18363,1.953 24.5781,0.703 47.0504,-13.789 56.5664,-36.465 L 137.645,218.324 73.2969,216.48 Z M 699.285,378.629 h -77.57 c -0.52,0 -0.961,0.371 -1.047,0.883 -0.094,0.508 0.199,1.015 0.687,1.187 2.481,0.903 5.372,1.942 7.879,2.852 1.594,0.57 2.883,1.758 3.582,3.301 0.696,1.539 0.762,3.289 0.149,4.867 -0.082,0.199 -0.16,0.41 -0.238,0.621 -9.551,24.75 -31.59,42.519 -57.801,46.621 -16.211,2.539 -33.59,5.25 -45.211,7.07 -0.559,0.078 -0.949,0.582 -0.91,1.137 0.05,0.551 0.508,0.98 1.07,0.98 20.258,0 58.922,0 88.762,0 21.699,0 41.429,-11.777 51.847,-30.32 10.422,18.543 30.145,30.32 51.852,30.32 34.449,0 81.754,0 104.82,0 0.547,0 1.016,-0.429 1.063,-0.98 0.039,-0.555 -0.352,-1.059 -0.906,-1.137 -12.813,-2.011 -32.637,-5.101 -50.176,-7.843 -23.145,-3.618 -42.594,-19.305 -51.02,-41.157 v 0 c -4.281,-11.093 -14.941,-18.402 -26.832,-18.402 z m 701.455,-291.6798 4.14,-10.7344 c 9.56,-24.7539 12.32,-37.207 37.28,-46.2187 14.81,-5.3516 17.5,-5.6563 29.13,-7.4727 0.55,-0.0859 0.94,-0.5859 0.9,-1.1406 -0.04,-0.5469 -0.51,-0.9765 -1.07,-0.9765 -55.65,0 -33.75,0 -68.21,0 -24.59,0 -46.64,15.125 -55.5,38.0664 l -11.05,28.4765 h 64.38 z M 1147.22,335.648 c -16.98,-10.351 -34.12,-20.285 -54.26,-22.187 L 1201.55,32.9727 c 0,0 8.54,-15.6329 30.55,-12.0313 l 0.69,0.1172 c 22.52,4.0547 35.9,1.9531 33.11,10.9297 L 1153.67,322.816 c -1.76,4.524 -3.92,8.825 -6.45,12.832 z m -675.243,0 C 454.996,325.297 437.863,315.363 417.719,313.461 L 526.297,32.9727 c 0,0 8.539,-15.6329 30.547,-12.0313 l 0.691,0.1172 c 22.531,4.0547 35.899,1.9531 33.113,10.9297 L 478.414,322.816 c -1.738,4.524 -3.91,8.825 -6.437,12.832 z M 1286.69,9.98438 c -2.46,-0.4961 -39.03,-7.83985 -54.58,-9.363286 -13.9,-1.359375 -41.92,-0.058594 -41.92,-0.058594 -24.12,0 -45.79,14.5508 -54.97,36.7461 h -0.02 c 0,0 -80.74,209.2504 -99.46,257.7504 -2.43,6.308 -7.49,11.269 -13.87,13.57 -3.05,1.113 -6.28,2.269 -8.78,3.184 -0.47,0.164 -0.76,0.64 -0.69,1.136 0.07,0.5 0.47,0.879 0.96,0.934 33.22,3.476 67.47,4.746 102.22,38.328 2.12,2.039 4.23,4.078 4.04,7.019 -0.21,2.93 -2.14,5.473 -4.93,6.418 -5.29,1.911 -10.96,2.559 -18.82,3.79 -16.21,2.531 -33.6,5.25 -45.22,7.062 -0.55,0.086 -0.95,0.582 -0.9,1.141 0.04,0.558 0.5,0.988 1.07,0.988 23.05,0 70.36,0 104.81,0 24.59,0 46.65,-15.129 55.51,-38.078 0,0 88.9,-229.336 117.85,-303.4768 5.71,-12.9883 12.27,-21.0937 29.93,-27.48045 14.82,-5.35156 17.5,-5.65234 29.13,-7.46094 0.55,-0.09765 0.94,-0.59375 0.9,-1.140622 -0.04,-0.558594 -0.51,-0.99609425 -1.06,-0.99609425 -55.66,0 -33.75,0 -68.21,0 -12.02,0 -23.43,3.61328625 -32.99,9.98828625 z M 733.008,378.629 h 68.98 c 24.59,0 46.653,-15.129 55.5,-38.078 1.289,-3.352 35.703,-92.371 35.703,-92.371 0,0 19.207,7.097 35.176,13.011 5.574,2.055 10.086,6.27 12.539,11.692 2.442,5.41 2.606,11.578 0.469,17.117 -2.422,6.281 -4.785,12.434 -6.152,15.949 -8.918,23.117 -18.86,60.129 -43.039,65.559 -8.329,1.871 -34.071,3.683 -39.981,5.012 -0.535,0.113 -0.887,0.621 -0.828,1.16 0.059,0.539 0.508,0.949 1.063,0.949 16.398,0 50.625,0 78.175,0 24.602,0 46.649,-15.129 55.52,-38.078 0,0 15.467,-39.91 21.117,-54.578 1.55,-3.996 1.42,-8.434 -0.35,-12.325 -1.76,-3.894 -5.01,-6.929 -9.013,-8.418 l -59.481,-22.003 h 44.532 c 23.622,0 44.912,-13.957 54.382,-35.399 h 0.09 c 0,0 45.33,-116.7108 66.81,-171.4569 5.63,-12.5742 12.26,-20.5078 29.62,-26.77735 14.8,-5.35156 17.5,-5.65234 29.12,-7.46094 0.54,-0.09765 0.94,-0.59375 0.9,-1.140622 -0.04,-0.558594 -0.5,-0.99609425 -1.06,-0.99609425 -55.65,0 -33.77,0 -68.21,0 -14.62,0 -28.34,5.33984625 -38.93,14.50000625 -7.22,6.0273 -13.05,13.7812 -16.81,22.8125 h -0.02 c 0,0 -65.08,168.3324 -67.603,174.3754 -3.133,7.507 -10.45,12.394 -18.582,12.394 -18.653,0 -50.137,0 -50.137,0 0,0 50.379,-129.7577 73.027,-187.578 5.653,-12.6484 12.266,-20.6055 29.675,-26.90625 14.81,-5.35156 17.49,-5.65234 29.12,-7.46094 0.56,-0.09765 0.95,-0.59375 0.9,-1.140622 -0.04,-0.558594 -0.51,-0.99609425 -1.05,-0.99609425 -55.657,0 -33.76,0 -68.215,0 -14.422,0 -27.988,5.21484625 -38.516,14.14840625 -7.422,6.0743 -13.398,13.9571 -17.246,23.1641 h -0.019 L 792.203,340.852 c -5.789,13.386 -12.242,21.679 -30.234,28.175 -14.813,5.352 -17.5,5.661 -29.133,7.473 -0.547,0.086 -0.938,0.582 -0.898,1.141 0.039,0.558 0.507,0.988 1.07,0.988 z M 611.434,9.98438 C 608.988,9.48828 572.426,2.14453 556.867,0.621094 542.957,-0.738281 514.945,0.5625 514.945,0.5625 c -24.105,0 -45.789,14.5508 -54.968,36.7461 h -0.024 c 0,0 -80.746,209.2504 -99.457,257.7504 -2.441,6.308 -7.5,11.269 -13.871,13.57 -3.059,1.113 -6.27,2.269 -8.781,3.184 -0.469,0.164 -0.754,0.64 -0.688,1.136 0.059,0.5 0.457,0.879 0.961,0.934 33.207,3.476 67.469,4.746 102.227,38.328 2.109,2.039 4.222,4.078 4.035,7.019 -0.203,2.93 -2.145,5.473 -4.934,6.418 -5.289,1.911 -10.961,2.559 -18.816,3.79 -16.223,2.531 -33.594,5.25 -45.223,7.062 -0.551,0.086 -0.941,0.582 -0.902,1.141 0.039,0.558 0.512,0.988 1.07,0.988 23.063,0 70.36,0 104.824,0 24.59,0 46.637,-15.129 55.497,-38.078 0,0 88.894,-229.336 117.855,-303.4768 5.707,-12.9883 12.254,-21.0937 29.934,-27.48045 14.8,-5.35156 17.5,-5.65234 29.121,-7.46094 0.55,-0.09765 0.953,-0.59375 0.898,-1.140622 -0.039,-0.558594 -0.496,-0.99609425 -1.058,-0.99609425 -55.649,0 -33.762,0 -68.207,0 -12.024,0 -23.434,3.61328625 -33.004,9.98828625 z M 582.918,300.18 l -8.762,22.636 c -9.558,24.754 -12.332,37.204 -37.277,46.211 -14.813,5.352 -17.5,5.661 -29.133,7.473 -0.551,0.086 -0.941,0.582 -0.898,1.141 0.039,0.558 0.507,0.988 1.07,0.988 55.648,0 33.75,0 68.207,0 24.59,0 46.641,-15.129 55.5,-38.078 l 23.77,-61.313 c 0.89,-1.238 1.609,-2.519 2.121,-3.847 L 751.414,32.9727 c 0,0 8.547,-15.6329 30.555,-12.0313 0,0 36.582,2.0703 33.801,11.0469 L 725.496,265.84 c -0.383,0.961 -0.648,1.918 -0.82,2.863 -9.238,24.067 -24.34,66.945 -46.879,75.188 -14.789,5.406 -17.5,5.652 -29.133,7.468 -0.547,0.082 -0.937,0.579 -0.898,1.141 0.039,0.551 0.507,0.98 1.07,0.98 55.641,0 33.769,1.141 68.199,0 41.41,-1.371 56.653,-45.128 65.512,-68.07 l 36.777,-94.879 h -0.148 L 867.477,66.5469 h 0.039 L 872,54.9375 878.492,38.2578 c 5.844,-13.6836 12.246,-22.0898 30.442,-28.66405 14.816,-5.35156 17.5,-5.65234 29.129,-7.46094 0.546,-0.09765 0.941,-0.59375 0.902,-1.140622 -0.051,-0.558594 -0.512,-0.99609425 -1.067,-0.99609425 -55.656,0 -33.75,0 -68.214,0 -12.032,0 -23.457,3.62109625 -33.016,10.00780625 C 835.602,9.80078 797.859,2.17188 781.98,0.621094 768.074,-0.738281 740.066,0.5625 740.066,0.5625 c -24.121,0 -45.793,14.5508 -54.972,36.7461 h -0.02 c 0,0 -97.136,250.3004 -102.117,262.2544 -0.102,0.226 -0.113,0.429 -0.039,0.617 z M 385.785,10.4336 c -9.746,6.4062 -17.609,15.6562 -22.281,26.875 h -0.02 l -6.394,16.5742 c 0,0 -28.883,-6.1523 -43.035,-7.3945 -13.922,-1.2188 -41.918,-0.0586 -41.918,-0.0586 -24.121,0 -45.793,14.5508 -54.973,36.7422 h -0.019 c 0,0 -64.301,166.6171 -67.329,174.4801 -9.55,24.746 -31.582,42.52 -57.7926,46.618 -16.2187,2.531 -33.5898,5.253 -45.2187,7.058 -0.5469,0.094 -0.9375,0.594 -0.8984,1.145 0.039,0.554 0.5078,0.988 1.0585,0.988 23.0704,0 70.3712,0 104.8202,0 24.59,0 46.649,-15.129 55.504,-38.07 L 283.484,78.8359 c 0,0 8.539,-15.6367 30.551,-12.0234 0,0 36.594,2.0586 33.801,11.043 0,0 -91.5,237.1055 -94.531,244.9605 -9.547,24.754 -31.578,42.52 -57.789,46.622 -16.219,2.531 -33.598,5.25 -45.219,7.062 -0.555,0.086 -0.953,0.582 -0.899,1.141 0.04,0.558 0.497,0.988 1.059,0.988 23.07,0 70.371,0 104.82,0 24.59,0 46.649,-15.129 55.496,-38.078 l 117.7,-302.7815 c 5.781,-13.3906 12.254,-21.6797 30.23,-28.17575 14.809,-5.35156 17.5,-5.65234 29.133,-7.46094 0.551,-0.09765 0.941,-0.59375 0.902,-1.140622 -0.043,-0.558594 -0.511,-0.99609425 -1.074,-0.99609425 -55.648,0 -33.75,0 -68.207,0 -12.301,0 -23.973,3.80078625 -33.672,10.43750625 v 0" /></g></g></svg>
